<svg width="1719" height="645" viewBox="0 0 1719 645" fill="transparent" xmlns="http://www.w3.org/2000/svg">
<path d="M650.385 475.36V147.35H553.703V340.196C553.966 351.569 551.597 362.85 546.778 373.169C542.343 382.448 535.282 390.241 526.46 395.593C517.64 400.946 507.48 403.722 497.146 403.603C488.034 403.741 479.106 401.049 471.606 395.903C463.979 390.693 457.949 383.489 454.182 375.087C449.897 365.31 447.815 354.721 448.081 344.06V147.35H350.689V362.563C350.218 384.805 354.959 406.851 364.537 426.958C372.988 444.666 386.284 459.651 402.904 470.198C419.933 480.659 439.645 485.998 459.659 485.57C479.549 485.67 498.959 479.509 515.109 467.97C532.267 455.696 545.998 439.281 555.008 420.273L568.544 475.36H650.385Z" fill="#ED5D2A"/>
<path d="M900.794 390.146C911.737 381.925 920.206 370.883 925.283 358.217C931.298 343.353 934.251 327.441 933.967 311.423C934.289 295.209 931.336 279.096 925.283 264.036C920.219 251.332 911.749 240.25 900.794 231.994C890.236 224.306 877.442 220.256 864.357 220.458C850.928 220.22 837.794 224.383 826.983 232.304C815.93 240.605 807.444 251.824 802.493 264.685C796.681 279.577 793.838 295.451 794.122 311.423C793.839 327.412 796.682 343.304 802.493 358.217C807.389 371.007 815.892 382.123 826.983 390.231C837.868 397.972 850.975 402.018 864.357 401.767C877.444 401.981 890.242 397.929 900.794 390.231M701.299 147.432H785.155L797.386 200.601C806.122 181.371 820.188 165.013 837.937 153.44C855.691 142.385 876.3 136.71 897.246 137.108C922.195 136.603 946.621 144.253 966.771 158.884C986.579 173.4 1002.18 193.775 1013.57 220.006C1024.96 246.238 1030.63 276.663 1030.59 311.282C1030.59 345.9 1025.01 376.334 1013.85 402.585C1002.69 428.835 986.995 449.247 966.771 463.82C946.746 478.297 922.546 485.946 897.786 485.624C877.059 485.947 856.686 480.262 839.157 469.264C821.392 457.73 807.305 441.4 798.549 422.188V644.819H701.214L701.299 147.432Z" fill="#ED5D2A"/>
<path d="M1133.15 473.131C1112.06 464.857 1093.35 451.547 1078.67 434.376C1064.95 418.333 1056.71 398.371 1055.14 377.371L1140.28 361.999C1140.52 372.949 1143.88 383.607 1149.95 392.744C1155.98 401.721 1164.33 408.913 1174.13 413.56C1184.9 418.619 1196.7 421.139 1208.61 420.921C1218.36 421.091 1228.07 419.574 1237.3 416.437C1244.87 413.973 1251.65 409.554 1256.94 403.631C1261.5 398.514 1264.03 391.912 1264.03 385.071C1264.13 381.061 1263.28 377.084 1261.54 373.463C1259.81 369.841 1257.24 366.677 1254.04 364.227C1246.47 358.455 1237.77 354.315 1228.5 352.07C1218.21 349.268 1205.54 346.382 1190.48 343.411C1169.54 339.951 1148.95 334.704 1128.93 327.728C1112.36 321.825 1097.67 311.653 1086.36 298.253C1075.01 284.789 1069.33 266.53 1069.33 243.476C1069.03 223.579 1074.75 204.052 1085.76 187.431C1097.15 170.612 1113.14 157.381 1131.85 149.296C1152.95 140.051 1175.82 135.46 1198.88 135.842C1220.7 135.598 1242.36 139.514 1262.7 147.378C1281 154.319 1297.3 165.645 1310.14 180.351C1322.25 194.332 1329.79 211.649 1331.74 229.994L1249.25 247.284C1248.38 232.241 1243.11 220.714 1233.44 212.704C1223.41 204.454 1210.7 200.122 1197.68 200.519C1190.14 200.386 1182.66 201.918 1175.78 205.003C1169.75 207.591 1164.58 211.814 1160.85 217.188C1157.41 222.301 1155.61 228.329 1155.69 234.479C1155.52 238.342 1156.29 242.187 1157.92 245.699C1159.55 249.21 1161.99 252.286 1165.05 254.674C1171.41 259.656 1178.76 263.25 1186.62 265.223C1194.79 267.367 1208.98 270.573 1229.18 274.842C1250.87 278.772 1272.2 284.432 1292.98 291.765C1310.35 297.904 1325.97 308.122 1338.52 321.551C1350.78 334.714 1356.91 351.798 1356.91 372.802C1357.17 394.172 1350.5 415.059 1337.9 432.373C1325.07 449.936 1307.31 463.409 1284.6 472.793C1235.89 491.478 1181.95 491.599 1133.15 473.131" fill="#ED5D2A"/>
<path d="M1587.85 392.072C1599.19 383.923 1607.92 372.687 1612.99 359.719C1619.09 344.327 1622.05 327.885 1621.7 311.346C1622.04 294.817 1619.08 278.385 1612.99 263.001C1607.91 250.037 1599.18 238.804 1587.85 230.648C1576.83 222.934 1563.64 218.895 1550.16 219.112C1536.47 218.827 1523.03 222.866 1511.79 230.648C1500.5 238.762 1491.87 250.019 1486.99 263.001C1481.08 278.429 1478.19 294.839 1478.48 311.346C1478.19 327.863 1481.08 344.282 1486.99 359.719C1491.86 372.705 1500.49 383.964 1511.79 392.072C1523.03 399.854 1536.47 403.893 1550.16 403.608C1563.64 403.825 1576.83 399.785 1587.85 392.072ZM1461.54 464.167C1436.21 450.099 1415.59 428.956 1402.23 403.354C1388.27 377.029 1381.29 346.378 1381.29 311.402C1381.29 276.427 1388.27 245.785 1402.23 219.478C1415.58 193.856 1436.2 172.692 1461.54 158.61C1487.08 144.318 1516.62 137.173 1550.16 137.173C1583.7 137.173 1613.13 144.318 1638.44 158.61C1663.64 172.77 1684.14 193.922 1697.44 219.478C1711.38 245.804 1718.36 276.445 1718.38 311.402C1718.4 346.359 1711.42 377.01 1697.44 403.354C1684.14 428.911 1663.64 450.063 1638.44 464.223C1613.09 478.514 1583.67 485.66 1550.16 485.66C1516.66 485.66 1487.12 478.514 1461.54 464.223" fill="#ED5D2A"/>
<path d="M299.696 475.358V257.55C299.696 233.632 295.184 212.703 286.16 194.764C277.733 177.463 264.409 162.984 247.822 153.103C230.743 143.142 211.234 138.048 191.435 138.379C171.518 138.417 152.079 144.444 135.673 155.67C118.531 166.886 105.174 182.963 97.3352 201.815V0H0V475.358H97.9879V282.541C97.7637 271.18 100.07 259.911 104.742 249.54C108.823 240.318 115.562 232.506 124.108 227.089C132.654 221.672 142.623 218.894 152.757 219.105C162.248 218.875 171.581 221.554 179.488 226.778C187.097 232.02 193.121 239.227 196.912 247.622C201.181 257.404 203.262 267.989 203.013 278.649V475.358H299.696Z" fill="#ED5D2A"/>
</svg>
